<?xml version="1.0" encoding="iso-8859-1"?>
<!-- Generator: Adobe Illustrator 19.0.0, SVG Export Plug-In . SVG Version: 6.00 Build 0)  -->
<svg version="1.1" id="Capa_1" xmlns="http://www.w3.org/2000/svg" xmlns:xlink="http://www.w3.org/1999/xlink" x="0px" y="0px"
	 viewBox="0 0 512 512" style="enable-background:new 0 0 512 512;" xml:space="preserve">
<g>
	<g>
		<path d="M497,60h-45V45c0-24.813-20.187-45-45-45H75C50.187,0,30,20.187,30,45v15H15C6.716,60,0,66.716,0,75s6.716,15,15,15h15v90
			H15c-8.284,0-15,6.716-15,15s6.716,15,15,15h15v92H15c-8.284,0-15,6.716-15,15s6.716,15,15,15h15v90H15c-8.284,0-15,6.716-15,15
			s6.716,15,15,15h15v15c0,24.813,20.187,45,45,45h332c24.813,0,45-20.187,45-45V362h45c8.284,0,15-6.716,15-15
			c0-10.111,0-260.322,0-272C512,66.716,505.284,60,497,60z M120,482H75c-8.271,0-15-6.729-15-15v-15h15c8.284,0,15-6.716,15-15
			s-6.716-15-15-15H60v-90h15c8.284,0,15-6.716,15-15s-6.716-15-15-15H60v-92h15c8.284,0,15-6.716,15-15s-6.716-15-15-15H60V90h15
			c8.284,0,15-6.716,15-15s-6.716-15-15-15H60V45c0-8.271,6.729-15,15-15h45V482z M422,467c0,8.271-6.729,15-15,15H150V30h257
			c8.271,0,15,6.729,15,15C422,48.786,422,463.185,422,467z M482,332h-30v-60h30V332z M482,242h-30v-62h30V242z M482,150h-30V90h30
			V150z"/>
	</g>
</g>
<g>
	<g>
		<path d="M328.94,162.852C340.073,151.953,347,136.773,347,120c0-33.084-26.916-60-60-60s-60,26.916-60,60
			c0,16.773,6.927,31.953,18.06,42.852C225.127,176.347,212,199.169,212,225v62c0,8.284,6.716,15,15,15h120c8.284,0,15-6.716,15-15
			v-62C362,199.169,348.873,176.347,328.94,162.852z M287,90c16.542,0,30,13.458,30,30s-13.458,30-30,30s-30-13.458-30-30
			S270.458,90,287,90z M332,272h-90v-47c0-24.813,20.187-45,45-45s45,20.187,45,45V272z"/>
	</g>
</g>
<g>
	<g>
		<path d="M317,362h-60c-8.284,0-15,6.716-15,15s6.716,15,15,15h60c8.284,0,15-6.716,15-15S325.284,362,317,362z"/>
	</g>
</g>
<g>
	<g>
		<path d="M347,422H227c-8.284,0-15,6.716-15,15s6.716,15,15,15h120c8.284,0,15-6.716,15-15S355.284,422,347,422z"/>
	</g>
</g>
<g>
</g>
<g>
</g>
<g>
</g>
<g>
</g>
<g>
</g>
<g>
</g>
<g>
</g>
<g>
</g>
<g>
</g>
<g>
</g>
<g>
</g>
<g>
</g>
<g>
</g>
<g>
</g>
<g>
</g>
</svg>
